<svg width="11" height="11" viewBox="0 0 11 11" fill="none" xmlns="http://www.w3.org/2000/svg">
<path d="M9.37165 6.12447C9.23405 5.98898 9.01292 5.98983 8.87642 6.1264L8.1875 6.81529L7.6564 6.28418L10.8964 3.06173C11.0342 2.92462 11.0346 2.7014 10.897 2.56387L9.91517 1.58201L10.1847 1.31245C10.322 1.17518 10.322 0.952568 10.1847 0.815271C10.0474 0.677997 9.82484 0.677997 9.68754 0.815271L9.41796 1.08483L8.43607 0.102958C8.29859 -0.0345497 8.07537 -0.034245 7.93821 0.103614L4.71577 3.34359L4.18468 2.81247L4.8736 2.12355C5.01014 1.98703 5.01099 1.7659 4.87552 1.62829L3.37552 0.104857C3.23804 -0.0347606 3.01261 -0.0350184 2.87487 0.104482L0.999871 2.00292C0.864027 2.14045 0.864707 2.36184 1.00142 2.49853L2.50142 3.99853C2.63874 4.13585 2.8613 4.13583 2.9986 3.99853L3.6875 3.30965L4.21995 3.84211L3.62574 4.43955C3.48907 4.57694 3.48938 4.79904 3.62642 4.93608L4.59659 5.90625L4.08659 6.41625C3.13301 5.68024 1.796 5.65598 0.783637 6.39424C0.609379 6.52129 0.589621 6.7743 0.742199 6.92688L4.07314 10.2578C4.22543 10.4102 4.47847 10.391 4.60578 10.2164C5.34404 9.20409 5.31975 7.86708 4.58375 6.91345L5.09375 6.40345L6.06392 7.37362C6.20054 7.51024 6.42258 7.51136 6.56042 7.3743L7.15789 6.78007L7.69034 7.31252L7.00142 8.00144C6.86412 8.13872 6.86412 8.36133 7.00142 8.49862L8.50142 9.99862C8.63787 10.1351 8.85933 10.1362 8.99705 10.0001L10.8955 8.12515C11.035 7.98738 11.0347 7.76196 10.8951 7.62452L9.37165 6.12447Z" fill="#23A9A1"/>
</svg>
